<svg width="734" height="276" viewBox="0 0 734 276" fill="none" xmlns="http://www.w3.org/2000/svg">
<rect width="734" height="276" rx="3" fill="#282A36"/>
<rect x="223" y="140" width="9" height="46" rx="1" fill="#898C9C"/>
<rect x="223" y="112" width="9" height="11" rx="1" fill="#898C9C"/>
<rect x="223" y="62" width="9" height="33" rx="1" fill="#898C9C"/>
<rect x="255" y="171" width="9" height="20" rx="1" transform="rotate(180 255 171)" fill="#898C9C"/>
<rect x="255" y="215" width="9" height="27" rx="1" transform="rotate(180 255 215)" fill="#898C9C"/>
<rect x="255" y="134" width="9" height="30" rx="1" transform="rotate(180 255 134)" fill="#898C9C"/>
<rect x="255" y="134" width="9" height="30" rx="1" transform="rotate(180 255 134)" fill="#3193C4"/>
<rect x="209" y="169" width="9" height="46" rx="1" transform="rotate(180 209 169)" fill="#898C9C"/>
<rect x="209" y="197" width="9" height="11" rx="1" transform="rotate(180 209 197)" fill="#898C9C"/>
<rect x="209" y="106" width="9" height="19" rx="1" transform="rotate(180 209 106)" fill="#898C9C"/>
<path d="M301.197 138.906C301.197 137.37 301.405 135.978 301.821 134.73C302.269 133.45 302.893 132.362 303.693 131.466C304.493 130.57 305.453 129.882 306.573 129.402C307.693 128.922 308.941 128.682 310.317 128.682C312.301 128.682 313.933 129.162 315.213 130.122C316.493 131.05 317.293 132.33 317.613 133.962H317.949V129.162H323.709V153.93C323.709 155.402 323.453 156.714 322.941 157.866C322.429 159.05 321.693 160.058 320.733 160.89C319.773 161.722 318.605 162.362 317.229 162.81C315.885 163.258 314.381 163.482 312.717 163.482H305.661V158.49H312.717C314.253 158.49 315.469 158.09 316.365 157.29C317.261 156.49 317.709 155.37 317.709 153.93V153.402L317.901 148.122H317.613C317.293 149.754 316.477 151.05 315.165 152.01C313.885 152.938 312.269 153.402 310.317 153.402C308.941 153.402 307.693 153.162 306.573 152.682C305.453 152.202 304.493 151.514 303.693 150.618C302.893 149.722 302.269 148.65 301.821 147.402C301.405 146.122 301.197 144.714 301.197 143.178V138.906ZM307.245 143.034C307.245 144.666 307.709 145.946 308.637 146.874C309.565 147.77 310.845 148.218 312.477 148.218C314.077 148.218 315.341 147.754 316.269 146.826C317.229 145.898 317.709 144.634 317.709 143.034V139.05C317.709 137.45 317.229 136.186 316.269 135.258C315.341 134.33 314.077 133.866 312.477 133.866C310.845 133.866 309.565 134.33 308.637 135.258C307.709 136.186 307.245 137.45 307.245 139.05V143.034ZM331.178 150.09H340.634V134.586H332.378V129.162H346.394V150.09H354.026V155.562H331.178V150.09ZM338.906 122.01C338.906 121.082 339.21 120.33 339.818 119.754C340.458 119.146 341.29 118.842 342.314 118.842H343.562C344.586 118.842 345.402 119.146 346.01 119.754C346.65 120.33 346.97 121.082 346.97 122.01C346.97 122.97 346.65 123.738 346.01 124.314C345.37 124.89 344.538 125.178 343.514 125.178H342.314C341.29 125.178 340.458 124.89 339.818 124.314C339.21 123.738 338.906 122.97 338.906 122.01ZM358.135 129.162H365.431V121.002H371.431V129.162H381.463V134.586H371.431V147.402C371.431 148.234 371.671 148.906 372.151 149.418C372.663 149.898 373.367 150.138 374.263 150.138H380.983V155.562H373.831C371.239 155.562 369.191 154.826 367.687 153.354C366.183 151.882 365.431 149.898 365.431 147.402V134.586H358.135V129.162Z" fill="white"/>
<path d="M421.397 134.73H410.789V129.162H427.397V153.066C427.397 154.634 427.141 156.058 426.629 157.338C426.117 158.618 425.397 159.706 424.469 160.602C423.573 161.53 422.469 162.234 421.157 162.714C419.877 163.226 418.437 163.482 416.837 163.482H409.637V157.914H416.501C418.005 157.914 419.189 157.466 420.053 156.57C420.949 155.706 421.397 154.538 421.397 153.066V134.73ZM424.709 118.842C425.733 118.842 426.549 119.146 427.157 119.754C427.797 120.33 428.117 121.082 428.117 122.01C428.117 122.97 427.797 123.738 427.157 124.314C426.517 124.89 425.685 125.178 424.661 125.178H423.461C422.437 125.178 421.605 124.89 420.965 124.314C420.357 123.738 420.053 122.97 420.053 122.01C420.053 121.082 420.357 120.33 420.965 119.754C421.605 119.146 422.437 118.842 423.461 118.842H424.709ZM437.794 129.162H443.842V145.674C443.842 149.098 445.426 150.81 448.594 150.81C451.794 150.81 453.394 149.098 453.394 145.674V129.162H459.394V145.674C459.394 148.97 458.434 151.53 456.514 153.354C454.626 155.146 451.986 156.042 448.594 156.042C445.17 156.042 442.514 155.13 440.626 153.306C438.738 151.482 437.794 148.938 437.794 145.674V129.162ZM465.327 129.162H469.887V133.002H470.319C470.415 131.658 470.847 130.602 471.615 129.834C472.415 129.066 473.471 128.682 474.783 128.682C476.031 128.682 477.071 129.066 477.903 129.834C478.767 130.602 479.359 131.658 479.679 133.002H479.871C479.967 131.658 480.399 130.602 481.167 129.834C481.967 129.066 483.023 128.682 484.335 128.682C485.935 128.682 487.183 129.29 488.079 130.506C489.007 131.69 489.471 133.322 489.471 135.402V155.562H484.431V135.882C484.431 133.898 483.663 132.906 482.127 132.906C480.655 132.906 479.919 133.93 479.919 135.978V155.562H474.879V135.882C474.879 134.25 474.351 133.29 473.295 133.002C472.975 132.938 472.735 132.906 472.575 132.906C472.415 132.906 472.175 132.938 471.855 133.002C470.863 133.29 470.367 134.282 470.367 135.978V155.562H465.327V129.162ZM501.069 129.162V133.722H501.501C501.821 132.154 502.589 130.922 503.805 130.026C505.053 129.13 506.637 128.682 508.557 128.682C509.933 128.682 511.181 128.922 512.301 129.402C513.421 129.882 514.365 130.57 515.133 131.466C515.933 132.362 516.541 133.45 516.957 134.73C517.405 135.978 517.629 137.402 517.629 139.002V145.578C517.629 147.178 517.405 148.634 516.957 149.946C516.541 151.226 515.933 152.33 515.133 153.258C514.365 154.154 513.421 154.842 512.301 155.322C511.181 155.802 509.933 156.042 508.557 156.042C506.637 156.042 505.053 155.594 503.805 154.698C502.589 153.802 501.821 152.554 501.501 150.954H501.069C501.069 151.05 501.085 151.258 501.117 151.578C501.149 151.866 501.181 152.234 501.213 152.682C501.245 153.098 501.261 153.562 501.261 154.074C501.293 154.586 501.309 155.082 501.309 155.562V163.482H495.261V129.162H501.069ZM501.309 145.578C501.309 147.146 501.757 148.41 502.653 149.37C503.581 150.33 504.829 150.81 506.397 150.81C508.029 150.81 509.309 150.33 510.237 149.37C511.165 148.378 511.629 147.066 511.629 145.434V139.146C511.629 137.514 511.165 136.234 510.237 135.306C509.309 134.346 508.029 133.866 506.397 133.866C504.861 133.866 503.629 134.346 502.701 135.306C501.773 136.266 501.309 137.546 501.309 139.146V145.578Z" fill="white"/>
</svg>
